<svg width="25" height="30" viewBox="0 0 25 30" fill="none" xmlns="http://www.w3.org/2000/svg">
<path d="M21.3358 8.21603C21.0897 7.94224 20.7382 7.77222 20.3476 7.77222C19.6079 7.77222 19.0078 8.3848 19.0078 9.13989C19.0078 9.53869 19.1743 9.89749 19.4413 10.1475L19.4425 10.1488C21.2244 11.964 22.3266 14.4743 22.3266 17.2472C22.3266 22.7866 17.9276 27.2784 12.5 27.2784C7.07235 27.2784 2.67341 22.7878 2.67341 17.2472C2.67341 14.1768 4.0242 11.4289 6.15264 9.5887L6.16734 9.5762L6.79803 12.8091C6.92539 13.4404 7.46547 13.9092 8.11208 13.9092C8.57377 13.9092 8.98158 13.6705 9.22284 13.3067L9.22529 13.3017L13.6059 6.60833V6.60333L13.6132 6.59082C13.634 6.55707 13.6548 6.52457 13.6732 6.48831L13.6818 6.47081C13.6989 6.43705 13.7149 6.40205 13.7308 6.3633L13.7369 6.34454C13.7504 6.30954 13.7626 6.27453 13.7736 6.23703C13.7736 6.22828 13.7736 6.21953 13.7798 6.21203C13.7896 6.17827 13.7981 6.14327 13.8055 6.10451C13.8055 6.08826 13.8055 6.07076 13.8128 6.05451C13.8202 6.03825 13.8226 5.9995 13.8238 5.972C13.8238 5.92699 13.83 5.88199 13.83 5.83573C13.83 5.78947 13.83 5.82573 13.83 5.82073C13.83 5.78072 13.83 5.74072 13.8238 5.70071C13.8177 5.66071 13.8153 5.63821 13.8104 5.60695C13.8104 5.59445 13.8104 5.58195 13.8055 5.56945C13.7981 5.52819 13.7871 5.48944 13.7761 5.45068V5.43943C13.7638 5.39817 13.7504 5.35817 13.7344 5.31942V5.31441C13.7185 5.27691 13.7014 5.24065 13.6842 5.2069L13.6793 5.19565C13.6622 5.16315 13.6438 5.13189 13.6242 5.10064L13.612 5.08064C13.5936 5.05438 13.5752 5.02813 13.5556 5.00313L13.5336 4.97312C13.5152 4.94937 13.4932 4.92687 13.4724 4.90436L13.4467 4.87436C13.4156 4.84269 13.3838 4.8131 13.3511 4.7856L13.3328 4.77185C13.3046 4.74809 13.2752 4.72559 13.2458 4.70559L6.67924 0.230029C6.46982 0.0862608 6.21265 0 5.93465 0C5.19496 0 4.59489 0.612577 4.59489 1.36767C4.59489 1.46143 4.60468 1.55394 4.62183 1.64271L4.6206 1.63395L5.5893 6.60708C2.2007 8.92612 0 12.8204 0 17.2397C0 24.2868 5.59665 30 12.5 30C19.4034 30 25 24.2868 25 17.2397C25 13.7167 23.6014 10.5263 21.3395 8.21728L21.3358 8.21603Z" fill="white"/>
</svg>
