<svg width="24" height="24" viewBox="0 0 24 24" fill="none" xmlns="http://www.w3.org/2000/svg">
<path d="M22.5699 13.7178L22.822 11.0389C23.02 8.93507 23.119 7.88313 22.7591 7.44828C22.5644 7.21305 22.2996 7.06892 22.0166 7.04406C21.4933 6.9981 20.8362 7.74619 19.5219 9.24238C18.8422 10.0161 18.5024 10.403 18.1233 10.463C17.9133 10.4961 17.6992 10.462 17.5052 10.3644C17.1552 10.1882 16.9217 9.70993 16.4549 8.75336L13.9944 3.71133C13.1123 1.90378 12.6712 1 12 1C11.3288 1 10.8877 1.90378 10.0056 3.71135L7.54508 8.75337C7.07827 9.70993 6.84486 10.1882 6.49478 10.3644C6.30081 10.462 6.08677 10.4961 5.87671 10.463C5.49759 10.403 5.15775 10.0161 4.47806 9.24238C3.16379 7.74619 2.50665 6.9981 1.98339 7.04406C1.70032 7.06892 1.43558 7.21305 1.24089 7.44828C0.880978 7.88313 0.979977 8.93507 1.17799 11.0389L1.4301 13.7178C1.84551 18.1316 2.05323 20.3385 3.3541 21.6692C4.65498 23 6.60469 23 10.5041 23H13.4959C17.3953 23 19.345 23 20.6459 21.6692C21.9468 20.3385 22.1544 18.1316 22.5699 13.7178Z" stroke="#272826" strokeWidth="2"/>
</svg>
