<svg width="26" height="22" viewBox="0 0 26 22" fill="none" xmlns="http://www.w3.org/2000/svg">
<path d="M0 19.9358C0 20.2452 0.122916 20.5419 0.341709 20.7607C0.560501 20.9795 0.857247 21.1024 1.16667 21.1024H10.5C10.8094 21.1024 11.1062 20.9795 11.325 20.7607C11.5437 20.5419 11.6667 20.2452 11.6667 19.9358C11.6667 19.6264 11.5437 19.3296 11.325 19.1108C11.1062 18.892 10.8094 18.7691 10.5 18.7691H2.41617C2.69927 16.8264 3.67166 15.0503 5.15579 13.7652C6.63992 12.48 8.53678 11.7716 10.5 11.7691C11.8737 11.781 13.2083 11.3119 14.2725 10.4432C15.3367 9.5744 16.0634 8.36068 16.3266 7.01236C16.5899 5.66405 16.3731 4.26612 15.7139 3.06085C15.0547 1.85557 13.9946 0.91892 12.7173 0.413216C11.4399 -0.0924885 10.026 -0.135371 8.72036 0.292001C7.41475 0.719373 6.29981 1.59006 5.56876 2.75317C4.83772 3.91628 4.53664 5.29851 4.71771 6.6603C4.89878 8.02209 5.55059 9.27761 6.56017 10.2093C4.62374 10.9948 2.9654 12.3397 1.79691 14.0722C0.628419 15.8047 0.00281908 17.8461 0 19.9358ZM10.5 2.43578C11.1922 2.43578 11.8689 2.64105 12.4445 3.02564C13.0201 3.41022 13.4687 3.95685 13.7336 4.59639C13.9985 5.23593 14.0678 5.93966 13.9327 6.6186C13.7977 7.29753 13.4644 7.92117 12.9749 8.41065C12.4854 8.90014 11.8617 9.23348 11.1828 9.36853C10.5039 9.50358 9.80015 9.43426 9.16061 9.16936C8.52107 8.90445 7.97444 8.45585 7.58986 7.88028C7.20527 7.3047 7 6.62801 7 5.93578C7 5.00752 7.36875 4.11728 8.02513 3.46091C8.6815 2.80453 9.57174 2.43578 10.5 2.43578ZM25.3248 13.7606L22.6497 16.4358L25.3248 19.1109C25.4363 19.2186 25.5251 19.3473 25.5863 19.4896C25.6474 19.632 25.6796 19.7851 25.681 19.94C25.6823 20.0949 25.6528 20.2485 25.5941 20.3919C25.5355 20.5353 25.4488 20.6655 25.3393 20.7751C25.2298 20.8846 25.0995 20.9712 24.9561 21.0299C24.8127 21.0886 24.6591 21.1181 24.5042 21.1167C24.3493 21.1154 24.1962 21.0832 24.0539 21.0221C23.9115 20.9609 23.7828 20.872 23.6752 20.7606L21 18.0854L18.3248 20.7606C18.1048 20.9731 17.8101 21.0907 17.5042 21.0881C17.1983 21.0854 16.9057 20.9627 16.6894 20.7464C16.4731 20.5301 16.3504 20.2375 16.3477 19.9316C16.3451 19.6257 16.4626 19.331 16.6752 19.1109L19.3503 16.4358L16.6752 13.7606C16.4626 13.5406 16.3451 13.2459 16.3477 12.94C16.3504 12.6341 16.4731 12.3415 16.6894 12.1252C16.9057 11.9088 17.1983 11.7862 17.5042 11.7835C17.8101 11.7808 18.1048 11.8984 18.3248 12.1109L21 14.7861L23.6752 12.1109C23.8952 11.8984 24.1899 11.7808 24.4958 11.7835C24.8017 11.7862 25.0943 11.9088 25.3106 12.1252C25.5269 12.3415 25.6496 12.6341 25.6523 12.94C25.6549 13.2459 25.5374 13.5406 25.3248 13.7606Z" fill="#272826"/>
</svg>
