<svg width="62" height="3637" viewBox="0 0 62 3637" fill="none" xmlns="http://www.w3.org/2000/svg">
<g clipPath="url(#clip0_948_836)">
<path d="M25.9008 0V205.532C25.9008 239.897 26.5018 274.208 23.5766 308.395C17.943 374.187 4.00927 438.336 1.67747 504.729C-0.452726 565.404 2.69691 626.992 3.72396 687.704C4.77765 750.167 4.37063 812.163 9.91674 874.277C15.6226 938.173 24.1548 1001.75 25.9959 1066.2C27.4186 1116.01 27.8915 1165.86 27.4147 1215.75C26.9088 1269.44 25.6041 1323.04 22.2909 1376.55C18.9016 1431.31 14.4396 1486.03 13.4848 1541.04C12.7507 1582.53 13.8918 1624.06 15.1167 1665.51C16.4367 1711.01 15.809 1756.61 17.5056 1802.07C20.1264 1872.27 26.1937 1942.11 29.621 2012.23C32.3446 2067.99 31.8273 2123.92 30.7622 2179.76C28.6586 2291.09 17.2165 2401.14 12.8838 2512.24C8.84404 2615.78 12.279 2719.45 16.6307 2822.86C19.5977 2893.33 25.935 2963.43 30.941 3033.64C35.6046 3099.1 38.1684 3164.66 39.5454 3230.39C40.9301 3297.24 43.0679 3365.1 39.3895 3431.84C35.5856 3501.02 26.2127 3569.36 25.4709 3638.89" stroke="#020202"/>
<path d="M29.3016 0V103.974C29.3016 171.79 31.9643 240.895 27.6393 308.475C23.4017 374.348 12.5453 439.222 10.9553 505.459C9.5022 566.134 10.0157 627.056 9.43373 687.769C8.8213 750.296 8.48656 811.927 13.8957 874.089C19.4609 938.055 27.7534 1001.73 29.4043 1066.25C30.6824 1116.31 31.3367 1166.41 30.9258 1216.5C30.4694 1269.94 28.8793 1323.27 25.7677 1376.54C22.5648 1431.3 18.5403 1486.11 17.6996 1541.11C17.072 1582.58 17.9887 1624.08 18.9131 1665.53C19.9287 1711 19.1451 1756.63 21.127 1802.03C24.1625 1872.26 31.0818 1942 35.0493 2012.1C38.2065 2067.88 37.5751 2123.79 36.2513 2179.66C33.6114 2291.07 21.5378 2401.09 16.6003 2512.23C11.99 2616.02 16.7449 2719.44 20.9063 2823.06C23.7403 2893.55 29.8037 2963.68 34.6004 3033.93C39.0624 3099.26 41.592 3164.79 43.5891 3230.35C45.628 3297.24 47.7049 3364.67 45.1106 3431.58C42.4251 3500.81 35.4829 3569.54 34.0298 3638.88" stroke="#020202"/>
<path d="M32.7478 0V103.797C32.7478 171.672 34.7487 240.256 31.4887 308.008C28.3201 373.859 20.2025 439.141 18.8978 505.191C17.6805 566.811 16.3758 628.291 14.451 689.9C12.5491 751.203 12.492 811.443 17.6501 872.462C23.0555 936.45 31.3442 1000.21 32.7935 1064.74C33.9347 1115.89 34.821 1167.08 34.4178 1218.27C33.5695 1325.46 23.3864 1431.78 21.7507 1538.86C21.1041 1581.13 21.9029 1623.47 22.6066 1665.73C23.3674 1711.1 22.4583 1756.69 24.6379 1801.97C28.0082 1872.06 35.6502 1941.6 40.0361 2011.56C43.5852 2068.23 42.8168 2125.04 41.223 2181.83C38.1304 2292.13 25.7334 2400.99 20.3014 2510.97C15.1357 2615.76 21.0128 2719.85 25.0487 2824.44C27.7723 2894.93 33.6722 2965.08 38.313 3035.35C42.6038 3100.45 45.0079 3165.77 47.5184 3231.04C50.0861 3297.87 51.9918 3364.84 50.2573 3431.75C48.4656 3500.9 43.745 3569.8 41.3523 3638.9" stroke="#020202"/>
<path d="M36.1334 0V103.797C36.1334 171.801 37.4001 240.09 35.289 308.046C33.2387 373.961 28.1224 439.646 27.2285 505.642C26.3916 567.391 23.1925 628.436 19.9592 690.013C16.7411 751.225 16.9427 811.363 21.6291 872.467C26.5476 936.503 34.1554 1000.26 36.1943 1064.69C37.8097 1115.7 38.3372 1166.74 37.7767 1217.79C36.5519 1325.05 27.6773 1431.66 26.1291 1538.83C25.5167 1581.1 26.1291 1623.43 26.4411 1665.71C26.7834 1711.06 25.764 1756.7 28.1034 1801.95C31.7285 1872.14 39.9716 1941.66 44.6922 2011.69C48.5152 2068.35 47.6289 2125.11 45.86 2181.91C42.4365 2292.25 30.4922 2401.12 24.1359 2511.05C18.0839 2615.76 24.1359 2720.06 28.7006 2824.63C31.7894 2895.01 37.1301 2965.16 41.5997 3035.39C45.7459 3100.57 48.6978 3165.92 51.6001 3231.24C57.656 3367.62 54.1792 3502.7 47.374 3638.88" stroke="#020202"/>
<path d="M39.5493 0V103.797C39.5493 171.892 39.9297 240.015 39.4352 308.11C38.9445 374.155 37.2784 440.199 37.2251 506.243C37.1756 568.196 31.2225 628.758 26.3383 690.196C21.4769 751.348 21.7432 811.255 25.8894 872.483C30.2297 936.573 37.0425 1000.38 39.6254 1064.71C41.6681 1115.56 41.9305 1166.47 41.1469 1217.39C39.5417 1324.68 32.1621 1431.63 30.8421 1538.87C30.321 1581.14 30.6025 1623.46 30.4617 1665.75C30.2944 1711.1 29.0961 1756.77 31.6714 1802.01C35.6693 1872.29 44.6047 1941.82 49.778 2011.92C53.9623 2068.58 52.9695 2125.25 51.0067 2182.06C49.1504 2235.76 46.111 2289.45 42.2196 2342.95C38.1304 2399.13 31.9491 2454.96 28.1452 2511.18C21.0242 2615.82 27.3654 2720.38 32.5044 2824.88C39.1803 2960.53 48.8613 3095.88 55.9289 3231.5C62.9624 3366.77 63.027 3503.73 54.3846 3638.9" stroke="#020202"/>
</g>
<defs>
<clipPath id="clip0_948_836">
<rect width="62" height="3639" fill="white" transform="matrix(-1 0 0 1 62 0)"/>
</clipPath>
</defs>
</svg>
