<svg width="51" height="51" viewBox="0 0 51 51" fill="none" xmlns="http://www.w3.org/2000/svg">
<path fillRule="evenodd" clipRule="evenodd" d="M25.4999 39.409C33.1817 39.409 39.409 33.1817 39.409 25.4999C39.409 17.8181 33.1817 11.5908 25.4999 11.5908C17.8181 11.5908 11.5908 17.8181 11.5908 25.4999C11.5908 33.1817 17.8181 39.409 25.4999 39.409ZM25.4999 34.7726C30.621 34.7726 34.7726 30.621 34.7726 25.4999C34.7726 20.3787 30.621 16.2272 25.4999 16.2272C20.3787 16.2272 16.2272 20.3787 16.2272 25.4999C16.2272 30.621 20.3787 34.7726 25.4999 34.7726Z" fill="#272826"/>
<path d="M39.409 9.27246C38.1287 9.27246 37.0908 10.3104 37.0908 11.5906C37.0908 12.8709 38.1287 13.9088 39.409 13.9088C40.6893 13.9088 41.7272 12.8709 41.7272 11.5906C41.7272 10.3104 40.6893 9.27246 39.409 9.27246Z" fill="#272826"/>
<path fillRule="evenodd" clipRule="evenodd" d="M1.516 7.5945C0 10.5698 0 14.4647 0 22.2545V28.7455C0 36.5352 0 40.4302 1.516 43.4054C2.84951 46.0226 4.97732 48.1505 7.5945 49.4839C10.5698 51 14.4647 51 22.2545 51H28.7455C36.5352 51 40.4302 51 43.4054 49.4839C46.0226 48.1505 48.1505 46.0226 49.4839 43.4054C51 40.4302 51 36.5352 51 28.7455V22.2545C51 14.4647 51 10.5698 49.4839 7.5945C48.1505 4.97732 46.0226 2.84951 43.4054 1.516C40.4302 0 36.5352 0 28.7455 0H22.2545C14.4647 0 10.5698 0 7.5945 1.516C4.97732 2.84951 2.84951 4.97732 1.516 7.5945ZM28.7455 4.63636H22.2545C18.2831 4.63636 15.5834 4.63998 13.4966 4.81046C11.464 4.97653 10.4245 5.27755 9.69937 5.64702C7.95459 6.53604 6.53604 7.95459 5.64702 9.69937C5.27755 10.4245 4.97653 11.464 4.81046 13.4966C4.63998 15.5834 4.63636 18.2831 4.63636 22.2545V28.7455C4.63636 32.717 4.63998 35.4165 4.81046 37.5033C4.97653 39.5361 5.27755 40.5756 5.64702 41.3007C6.53604 43.0454 7.95459 44.4639 9.69937 45.3529C10.4245 45.7224 11.464 46.0236 13.4966 46.1895C15.5834 46.3599 18.2831 46.3636 22.2545 46.3636H28.7455C32.717 46.3636 35.4165 46.3599 37.5033 46.1895C39.5361 46.0236 40.5756 45.7224 41.3007 45.3529C43.0454 44.4639 44.4639 43.0454 45.3529 41.3007C45.7224 40.5756 46.0236 39.5361 46.1895 37.5033C46.3599 35.4165 46.3636 32.717 46.3636 28.7455V22.2545C46.3636 18.2831 46.3599 15.5834 46.1895 13.4966C46.0236 11.464 45.7224 10.4245 45.3529 9.69937C44.4639 7.95459 43.0454 6.53604 41.3007 5.64702C40.5756 5.27755 39.5361 4.97653 37.5033 4.81046C35.4165 4.63998 32.717 4.63636 28.7455 4.63636Z" fill="#272826"/>
</svg>
