<svg width="173" height="6682" viewBox="0 0 173 6682" fill="none" xmlns="http://www.w3.org/2000/svg">
<path d="M100.728 0V385.366C100.728 449.798 99.0512 514.13 107.213 578.23C122.933 701.587 161.813 821.864 168.319 946.35C174.263 1060.11 165.475 1175.59 162.609 1289.42C159.669 1406.54 160.804 1522.78 145.329 1639.24C129.408 1759.04 105.6 1878.24 100.463 1999.08C96.4932 2092.49 95.1735 2185.96 96.5038 2279.48C97.9155 2380.16 101.556 2480.65 110.801 2580.98C120.258 2683.67 132.709 2786.26 135.373 2889.4C137.421 2967.19 134.237 3045.05 130.819 3122.77C127.136 3208.08 128.888 3293.59 124.154 3378.82C116.841 3510.44 99.9109 3641.39 90.3476 3772.86C82.7479 3877.41 84.1914 3982.27 87.1634 4086.97C93.033 4295.72 124.96 4502.06 137.05 4710.36C148.322 4904.51 138.737 5098.88 126.595 5292.76C118.316 5424.89 100.633 5556.33 86.6645 5687.97C73.6515 5810.7 66.4976 5933.62 62.6553 6056.87C58.7917 6182.21 52.8266 6309.44 63.0905 6434.57C73.7046 6564.28 99.8579 6692.43 101.928 6822.8" stroke="#020202" strokeWidth="5"/>
<path d="M91.2393 0V194.948C91.2393 322.101 83.8094 451.671 95.8777 578.381C107.702 701.889 137.995 823.526 142.431 947.719C146.486 1061.48 145.053 1175.71 146.677 1289.54C148.386 1406.78 149.32 1522.33 134.227 1638.89C118.698 1758.82 95.5593 1878.21 90.9527 1999.18C87.3864 2093.03 85.5607 2186.98 86.7071 2280.89C87.9808 2381.09 92.4175 2481.09 101.1 2580.96C110.037 2683.65 121.267 2786.4 123.612 2889.53C125.364 2967.28 122.806 3045.1 120.227 3122.81C117.393 3208.07 119.579 3293.63 114.049 3378.75C105.579 3510.42 86.2719 3641.19 75.2013 3772.62C66.3916 3877.2 68.1535 3982.03 71.8473 4086.78C79.2135 4295.68 112.903 4501.96 126.68 4710.35C139.544 4904.94 126.277 5098.85 114.665 5293.15C106.757 5425.3 89.8382 5556.8 76.4538 5688.52C64.0034 5811.01 56.945 5933.86 51.3726 6056.79C45.6834 6182.22 39.8881 6308.65 47.1269 6434.1C54.6205 6563.89 73.9913 6692.77 78.0459 6822.78" stroke="#020202" strokeWidth="5"/>
<path d="M81.6224 0V194.616C81.6224 321.88 76.0394 450.472 85.1357 577.505C93.9773 700.973 116.628 823.375 120.269 947.216C123.665 1062.75 127.306 1178.02 132.676 1293.54C137.984 1408.48 138.143 1521.43 123.75 1635.84C108.667 1755.81 85.539 1875.36 81.4951 1996.34C78.3108 2092.26 75.8377 2188.24 76.9628 2284.21C79.3298 2485.19 107.744 2684.54 112.308 2885.31C114.112 2964.57 111.883 3043.94 109.92 3123.2C107.797 3208.26 110.334 3293.74 104.252 3378.63C94.8477 3510.04 73.5238 3640.43 61.2857 3771.61C51.3827 3877.86 53.5268 3984.37 57.9741 4090.85C66.6034 4297.67 101.195 4501.78 116.352 4707.99C130.766 4904.47 114.367 5099.62 103.105 5295.72C95.5057 5427.9 79.0432 5559.42 66.0939 5691.19C54.1212 5813.23 47.413 5935.71 40.4077 6058.1C33.2432 6183.39 27.9255 6308.95 32.7655 6434.42C37.7648 6564.06 50.9369 6693.26 57.6132 6822.82" stroke="#020202" strokeWidth="5"/>
<path d="M72.1759 0V194.616C72.1759 322.121 68.6414 450.16 74.5322 577.575C80.2532 701.165 94.5293 824.321 97.0236 948.061C99.3587 1063.84 108.285 1178.3 117.307 1293.75C126.287 1408.52 125.724 1521.28 112.648 1635.85C98.9235 1755.91 77.6952 1875.45 72.0061 1996.26C67.4986 2091.91 66.0268 2187.59 67.5906 2283.32C71.0083 2484.43 95.7711 2684.32 100.091 2885.26C101.8 2964.51 100.091 3043.88 99.2207 3123.15C98.2655 3208.19 101.11 3293.75 94.5824 3378.6C84.4671 3510.19 61.4662 3640.55 48.294 3771.86C37.6268 3878.08 40.0999 3984.51 45.0355 4091C54.5882 4297.9 87.9167 4502.02 105.653 4708.14C122.54 4904.46 105.653 5100.02 92.9159 5296.08C84.2972 5428.05 69.395 5559.57 56.9234 5691.25C45.3539 5813.47 37.1173 5935.99 29.0187 6058.46C12.121 6314.18 21.8224 6567.45 40.8111 6822.78" stroke="#020202" strokeWidth="5"/>
<path d="M62.6446 0V194.616C62.6446 322.293 61.5831 450.02 62.963 577.696C64.3322 701.527 68.9812 825.358 69.1298 949.189C69.2678 1065.35 85.8789 1178.9 99.5075 1294.09C113.072 1408.75 112.329 1521.08 100.76 1635.88C88.6492 1756.04 69.6393 1875.68 62.4323 1996.29C56.7325 2091.64 56.0001 2187.08 58.1866 2282.56C62.6658 2483.74 83.2572 2684.25 86.9403 2885.33C88.3945 2964.59 87.609 3043.93 88.0018 3123.22C88.4688 3208.25 91.8122 3293.88 84.6264 3378.7C73.471 3510.48 48.5384 3640.84 34.1031 3772.28C22.4276 3878.51 25.1978 3984.78 30.6747 4091.29C35.8544 4191.97 44.3352 4292.64 55.1934 4392.96C66.6036 4498.28 83.8516 4602.97 94.4658 4708.38C114.335 4904.57 96.6417 5100.62 82.302 5296.55C63.6741 5550.89 36.6611 5804.67 16.94 6058.95C-2.68551 6312.58 -2.86596 6569.38 21.2494 6822.82" stroke="#020202" strokeWidth="5"/>
</svg>
