<svg width="30" height="37" viewBox="0 0 30 37" fill="none" xmlns="http://www.w3.org/2000/svg">
<path fillRule="evenodd" clipRule="evenodd" d="M3.33333 14.2955C3.33333 8.56669 8.34988 3.36364 15 3.36364C21.6502 3.36364 26.6667 8.56669 26.6667 14.2955C26.6667 17.9028 24.4795 21.9319 21.601 25.6664C19.3262 28.6178 16.7955 31.169 15 32.9542C13.2045 31.169 10.6738 28.6178 8.39892 25.6664C5.52048 21.9319 3.33333 17.9028 3.33333 14.2955ZM15 0C6.65012 0 0 6.56967 0 14.2955C0 19.0972 2.81285 23.8976 5.76775 27.7313C8.32478 31.0489 11.199 33.9011 12.9955 35.6836C13.3052 35.9911 13.583 36.2667 13.8215 36.5074C14.134 36.8227 14.558 37 15 37C15.442 37 15.866 36.8227 16.1785 36.5074C16.417 36.2667 16.6948 35.9911 17.0045 35.6838C18.8008 33.9011 21.6752 31.0489 24.2323 27.7313C27.1872 23.8976 30 19.0972 30 14.2955C30 6.56967 23.3498 0 15 0ZM15 19.3409C17.3012 19.3409 19.1667 17.4585 19.1667 15.1364C19.1667 12.8143 17.3012 10.9318 15 10.9318C12.6988 10.9318 10.8333 12.8143 10.8333 15.1364C10.8333 17.4585 12.6988 19.3409 15 19.3409Z" fill="black"/>
</svg>
