<svg width="40" height="50" viewBox="0 0 40 50" fill="none" xmlns="http://www.w3.org/2000/svg">
<path d="M35 20H12.5V12.5C12.5 8.365 15.865 5 20 5C24.135 5 27.5 8.365 27.5 12.5H32.5C32.5 5.6075 26.8925 0 20 0C13.1075 0 7.5 5.6075 7.5 12.5V20H5C3.67392 20 2.40215 20.5268 1.46447 21.4645C0.526784 22.4021 0 23.6739 0 25V45C0 46.3261 0.526784 47.5979 1.46447 48.5355C2.40215 49.4732 3.67392 50 5 50H35C36.3261 50 37.5979 49.4732 38.5355 48.5355C39.4732 47.5979 40 46.3261 40 45V25C40 23.6739 39.4732 22.4021 38.5355 21.4645C37.5979 20.5268 36.3261 20 35 20ZM15.1525 33.7475C15.4598 32.5711 16.1848 31.5468 17.1922 30.8658C18.1996 30.1849 19.4203 29.894 20.6265 30.0474C21.8327 30.2009 22.9418 30.7881 23.7466 31.6995C24.5514 32.6109 24.997 33.7841 25 35C24.9986 35.8744 24.7667 36.7329 24.3278 37.4891C23.8889 38.2453 23.2585 38.8725 22.5 39.3075V45H17.5V39.3075C16.5541 38.7655 15.8121 37.928 15.3881 36.9236C14.964 35.9192 14.8812 34.8034 15.1525 33.7475Z" fill="white"/>
</svg>
