<svg width="23" height="23" viewBox="0 0 23 23" fill="none" xmlns="http://www.w3.org/2000/svg">
<path d="M11.5 15C13.433 15 15 13.433 15 11.5C15 9.567 13.433 8 11.5 8C9.567 8 8 9.567 8 11.5C8 13.433 9.567 15 11.5 15Z" stroke="white" stroke-width="1.5"/>
<path d="M13.4661 1.15985C13.0567 1 12.5378 1 11.5 1C10.4622 1 9.94331 1 9.53392 1.15985C8.98818 1.37299 8.55457 1.78181 8.32851 2.29636C8.22531 2.53126 8.18492 2.80442 8.16912 3.20289C8.1459 3.78846 7.82739 4.33048 7.28912 4.62348C6.75088 4.91646 6.09376 4.90552 5.54427 4.6317C5.17036 4.44536 4.89925 4.34175 4.63188 4.30857C4.0462 4.23587 3.45388 4.3855 2.98522 4.72456C2.63372 4.97885 2.37427 5.40254 1.85536 6.24993C1.33645 7.09732 1.077 7.521 1.01917 7.93516C0.942066 8.48734 1.10078 9.04579 1.46039 9.48767C1.62453 9.68938 1.85522 9.85885 2.21325 10.0709C2.73959 10.3828 3.07825 10.914 3.07821 11.5C3.07818 12.086 2.73953 12.6171 2.21324 12.9288C1.85516 13.141 1.62444 13.3106 1.46028 13.5123C1.10067 13.9542 0.941955 14.5126 1.01907 15.0647C1.07689 15.4789 1.33634 15.9026 1.85525 16.75C2.37417 17.5973 2.63362 18.0211 2.98511 18.2753C3.45377 18.6144 4.04609 18.764 4.63177 18.6913C4.89911 18.6582 5.17021 18.5545 5.5441 18.3683C6.09362 18.0944 6.75079 18.0835 7.28908 18.3764C7.82736 18.6695 8.1459 19.2115 8.16912 19.7972C8.18493 20.1956 8.22531 20.4688 8.32851 20.7037C8.55457 21.2182 8.98818 21.627 9.53392 21.8402C9.94331 22 10.4622 22 11.5 22C12.5378 22 13.0567 22 13.4661 21.8402C14.0118 21.627 14.4455 21.2182 14.6714 20.7037C14.7747 20.4688 14.8151 20.1956 14.8309 19.7971C14.8541 19.2115 15.1726 18.6695 15.7108 18.3764C16.2491 18.0834 16.9063 18.0944 17.4559 18.3683C17.8297 18.5545 18.1008 18.6581 18.3681 18.6912C18.9537 18.764 19.5461 18.6144 20.0148 18.2753C20.3662 18.021 20.6257 17.5974 21.1446 16.7499C21.6636 15.9025 21.923 15.4789 21.9808 15.0647C22.0579 14.5126 21.8992 13.9541 21.5396 13.5122C21.3754 13.3105 21.1447 13.1409 20.7866 12.9288C20.2604 12.6171 19.9218 12.0859 19.9218 11.4999C19.9218 10.9139 20.2604 10.3829 20.7866 10.0712C21.1448 9.85895 21.3756 9.68948 21.5397 9.48767C21.8993 9.04587 22.058 8.48741 21.981 7.93522C21.9232 7.52108 21.6637 7.09738 21.1447 6.25C20.6258 5.40262 20.3663 4.97892 20.0149 4.72463C19.5462 4.38558 18.9539 4.23594 18.3682 4.30864C18.1009 4.34182 17.8298 4.44543 17.4559 4.63174C16.9064 4.90557 16.2492 4.91652 15.7109 4.62351C15.1726 4.33051 14.8541 3.78844 14.8309 3.20284C14.8151 2.8044 14.7747 2.53125 14.6714 2.29636C14.4455 1.78181 14.0118 1.37299 13.4661 1.15985Z" stroke="white" stroke-width="1.5"/>
</svg>
