<svg width="56" height="51" viewBox="0 0 56 51" fill="none" xmlns="http://www.w3.org/2000/svg">
<path fillRule="evenodd" clipRule="evenodd" d="M55.1211 6.01284C55.9158 2.13842 52.1103 -1.08131 48.4211 0.344119L3.19809 17.8166C-0.921865 19.4084 -1.10544 25.1696 2.90479 27.0204L12.7531 31.5659L17.4381 47.9631C17.6814 48.8149 18.3573 49.4744 19.2148 49.6966C20.0722 49.9186 20.9833 49.6706 21.6096 49.0441L28.8263 41.8274L38.9356 49.4094C41.8701 51.6101 46.0966 50.0071 46.8336 46.4139L55.1211 6.01284ZM5.00009 22.4806L50.2231 5.00812L41.9356 45.4094L30.0918 36.5264C29.0966 35.7799 27.7038 35.8789 26.8241 36.7586L23.7331 39.8496L24.6618 34.7419L42.8596 16.5442C43.7453 15.6586 43.8388 14.2543 43.0786 13.2589C42.3183 12.2636 40.9391 11.9844 39.8516 12.6058L14.7199 26.9666L5.00009 22.4806ZM17.7842 30.9744L19.3002 36.2804L19.8822 33.0791C19.9732 32.5789 20.2145 32.1181 20.5741 31.7586L26.1238 26.2091L17.7842 30.9744Z" fill="#272826"/>
</svg>
