<svg width="54" height="54" viewBox="0 0 54 54" fill="none" xmlns="http://www.w3.org/2000/svg">
<path d="M5.75 5.75L4.86188 4.87025L4.8724 4.85988L5.75 5.75ZM5.75 48.75L4.87025 49.638L4.85988 49.6275L5.75 48.75ZM48.7499 48.75L49.6382 49.6298L49.6277 49.6403L48.7499 48.75ZM48.7499 5.75L49.6297 4.86188L49.6402 4.8724L48.7499 5.75ZM10.6833 17.4667L9.43358 17.4923C9.4267 17.1564 9.5553 16.8319 9.79043 16.5919C10.0255 16.3519 10.3474 16.2167 10.6833 16.2167V17.4667ZM29.5167 38.2668H30.7667C30.7667 38.957 30.2069 39.5168 29.5167 39.5168V38.2668ZM29.5167 30.8333H28.2667C28.2667 30.4802 28.4159 30.1438 28.6777 29.9067C28.9394 29.6698 29.2892 29.5545 29.6406 29.5895L29.5167 30.8333ZM38.1334 38.2668V39.5168C37.5899 39.5168 37.1089 39.1657 36.9431 38.6482L38.1334 38.2668ZM44.0499 38.2668L45.2567 37.9405C45.3582 38.316 45.2792 38.7175 45.0427 39.0265C44.8059 39.3355 44.4392 39.5168 44.0499 39.5168V38.2668ZM35.4999 27.8333L34.9429 28.9525C34.5356 28.7495 34.2704 28.3412 34.2511 27.8865C34.2317 27.4317 34.4612 27.0025 34.8499 26.7658L35.4999 27.8333ZM42.7999 17.45V16.2C43.1754 16.2 43.5309 16.3688 43.7684 16.6596C44.0059 16.9505 44.0999 17.3327 44.0247 17.7005L42.7999 17.45ZM37.4334 17.45L36.2304 17.1105C36.3824 16.5719 36.8736 16.2 37.4334 16.2V17.45ZM29.5167 25.6832L29.6492 26.9262C29.2967 26.964 28.9447 26.85 28.6809 26.613C28.4172 26.3757 28.2667 26.038 28.2667 25.6832H29.5167ZM29.5167 17.4667V16.2167C30.2069 16.2167 30.7667 16.7763 30.7667 17.4667H29.5167ZM24.1334 17.4667H22.8834C22.8834 16.7763 23.4429 16.2167 24.1334 16.2167V17.4667ZM24.1334 31.8667H25.3834C25.3834 32.2515 25.2059 32.615 24.9026 32.852C24.5991 33.0887 24.2036 33.1728 23.8302 33.0793L24.1334 31.8667ZM16.4167 17.4667V16.2167C17.0977 16.2167 17.6533 16.7618 17.6664 17.4426L16.4167 17.4667ZM1 26.25C1 20.6268 0.997375 16.2864 1.44855 12.9154C1.90453 9.50855 2.84417 6.90718 4.86188 4.87025L6.63805 6.62968C5.15578 8.12608 4.34548 10.1165 3.92645 13.2471C3.50263 16.4136 3.5 20.5565 3.5 26.25H1ZM1 28.25V26.25H3.5V28.25H1ZM4.85988 49.6275C2.84413 47.583 1.90455 44.9792 1.44855 41.572C0.997375 38.2012 1 33.865 1 28.25H3.5C3.5 33.935 3.50263 38.0738 3.92645 41.2405C4.34543 44.3708 5.15588 46.367 6.64013 47.8725L4.85988 49.6275ZM26.2499 53.5C20.6268 53.5 16.2864 53.5028 12.9154 53.0515C9.50852 52.5955 6.90718 51.6558 4.87025 49.638L6.62968 47.862C8.12608 49.3442 10.1165 50.1545 13.2471 50.5735C16.4136 50.9972 20.5565 51 26.2499 51V53.5ZM28.2499 53.5H26.2499V51H28.2499V53.5ZM49.6277 49.6403C47.5832 51.656 44.9792 52.5955 41.5722 53.0515C38.2012 53.5028 33.8649 53.5 28.2499 53.5V51C33.9352 51 38.0739 50.9972 41.2404 50.5735C44.3709 50.1545 46.3669 49.344 47.8724 47.8597L49.6277 49.6403ZM53.4999 28.25C53.4999 33.8732 53.5027 38.2138 53.0514 41.5845C52.5954 44.9915 51.6559 47.5928 49.6382 49.6298L47.8619 47.8703C49.3442 46.374 50.1547 44.3835 50.5737 41.253C50.9974 38.0863 50.9999 33.9435 50.9999 28.25H53.4999ZM53.4999 26.25V28.25H50.9999V26.25H53.4999ZM49.6402 4.8724C51.6559 6.91695 52.5954 9.52085 53.0514 12.9279C53.5027 16.2989 53.4999 20.6351 53.4999 26.25H50.9999C50.9999 20.5649 50.9974 16.4262 50.5737 13.2596C50.1547 10.1292 49.3442 8.13305 47.8599 6.6276L49.6402 4.8724ZM28.2499 1C33.8731 1 38.2137 0.997375 41.5847 1.44855C44.9914 1.90453 47.5927 2.84415 49.6297 4.86188L47.8704 6.63805C46.3739 5.15578 44.3837 4.34548 41.2529 3.92645C38.0864 3.50262 33.9434 3.5 28.2499 3.5V1ZM26.2499 1H28.2499V3.5H26.2499V1ZM4.8724 4.85988C6.91695 2.84413 9.52085 1.90458 12.9279 1.44855C16.2989 0.997375 20.6351 1 26.2499 1V3.5C20.5649 3.5 16.4261 3.50262 13.2596 3.92645C10.1292 4.34543 8.13305 5.15588 6.6276 6.64013L4.8724 4.85988ZM28.8499 39.5168C22.8444 39.5168 18.0013 37.4495 14.6451 33.558C11.3137 29.6955 9.57078 24.1798 9.43358 17.4923L11.9331 17.441C12.0625 23.7535 13.7029 28.6378 16.5382 31.9253C19.3487 35.1838 23.4557 37.0168 28.8499 37.0168V39.5168ZM28.8666 39.5168H28.8499V37.0168H28.8666V39.5168ZM29.5167 39.5168H28.8666V37.0168H29.5167V39.5168ZM30.7667 30.8333V38.2668H28.2667V30.8333H30.7667ZM36.9431 38.6482C35.7981 35.078 32.9889 32.4352 29.3927 32.0772L29.6406 29.5895C34.4109 30.0647 37.9351 33.5552 39.3236 37.885L36.9431 38.6482ZM44.0499 39.5168H38.1334V37.0168H44.0499V39.5168ZM41.8604 31.341C43.4462 33.276 44.6037 35.5252 45.2567 37.9405L42.8434 38.593C42.2827 36.519 41.2887 34.5872 39.9267 32.9258L41.8604 31.341ZM36.0569 26.7142C38.2966 27.829 40.2747 29.406 41.8604 31.341L39.9267 32.9258C38.5649 31.264 36.8664 29.9097 34.9429 28.9525L36.0569 26.7142ZM41.2549 24.1215C39.8999 26.0487 38.1622 27.6758 36.1502 28.901L34.8499 26.7658C36.5684 25.7192 38.0524 24.3295 39.2097 22.6838L41.2549 24.1215ZM44.0247 17.7005C43.5527 20.0084 42.6097 22.1943 41.2549 24.1215L39.2097 22.6838C40.3669 21.0377 41.1722 19.1708 41.5754 17.1995L44.0247 17.7005ZM37.4334 16.2H42.7999V18.7H37.4334V16.2ZM29.3841 24.4405C30.6254 24.308 32.0566 23.499 33.3624 22.1245C34.6516 20.7673 35.7044 18.9735 36.2304 17.1105L38.6364 17.7896C37.9954 20.0599 36.7317 22.2077 35.1752 23.8463C33.6349 25.4675 31.6914 26.7085 29.6492 26.9262L29.3841 24.4405ZM30.7667 17.4667V25.6832H28.2667V17.4667H30.7667ZM24.1334 16.2167H29.5167V18.7167H24.1334V16.2167ZM22.8834 31.8667V17.4667H25.3834V31.8667H22.8834ZM17.6664 17.4426C17.8431 26.6315 21.8385 30.0045 24.4364 30.654L23.8302 33.0793C19.7615 32.0623 15.3568 27.3685 15.1669 17.4907L17.6664 17.4426ZM10.6833 16.2167H16.4167V18.7167H10.6833V16.2167Z" fill="#272826"/>
<path d="M4.86187 4.87025L5.75 5.75L4.8724 4.85988M4.86187 4.87025L4.8724 4.85988M4.86187 4.87025C2.84418 6.90718 1.90453 9.50855 1.44855 12.9154C0.997375 16.2864 1 20.6268 1 26.25M4.86187 4.87025L6.63805 6.62968C5.15578 8.12608 4.34548 10.1164 3.92645 13.2471C3.50263 16.4136 3.5 20.5565 3.5 26.25M4.8724 4.85988C6.91695 2.84413 9.52085 1.90458 12.9279 1.44855C16.2989 0.997375 20.6351 1 26.2499 1M4.8724 4.85988L6.6276 6.64013C8.13305 5.15588 10.1292 4.34543 13.2596 3.92645C16.4261 3.50263 20.5649 3.5 26.2499 3.5M4.87025 49.638L5.75 48.75L4.85988 49.6275M4.87025 49.638L4.85988 49.6275M4.87025 49.638C6.90717 51.6558 9.50853 52.5955 12.9154 53.0515C16.2864 53.5028 20.6268 53.5 26.2499 53.5M4.87025 49.638L6.62968 47.862C8.12608 49.3443 10.1164 50.1545 13.2471 50.5735C16.4136 50.9972 20.5565 51 26.2499 51M4.85988 49.6275C2.84413 47.583 1.90455 44.9792 1.44855 41.572C0.997375 38.2012 1 33.865 1 28.25M4.85988 49.6275L6.64013 47.8725C5.15588 46.367 4.34543 44.3708 3.92645 41.2405C3.50263 38.0738 3.5 33.935 3.5 28.25M49.6382 49.6298L48.7499 48.75L49.6277 49.6403M49.6382 49.6298L49.6277 49.6403M49.6382 49.6298C51.6559 47.5928 52.5954 44.9915 53.0514 41.5845C53.5027 38.2138 53.4999 33.8732 53.4999 28.25M49.6382 49.6298L47.8619 47.8703C49.3442 46.374 50.1547 44.3835 50.5737 41.253C50.9974 38.0863 50.9999 33.9435 50.9999 28.25M49.6277 49.6403C47.5832 51.656 44.9792 52.5955 41.5722 53.0515C38.2012 53.5028 33.8649 53.5 28.2499 53.5M49.6277 49.6403L47.8724 47.8598C46.3669 49.344 44.3709 50.1545 41.2404 50.5735C38.0739 50.9972 33.9352 51 28.2499 51M49.6297 4.86188L48.7499 5.75L49.6402 4.8724M49.6297 4.86188L49.6402 4.8724M49.6297 4.86188C47.5927 2.84415 44.9914 1.90453 41.5847 1.44855C38.2137 0.997375 33.8732 1 28.2499 1M49.6297 4.86188L47.8704 6.63805C46.3739 5.15578 44.3837 4.34548 41.2529 3.92645C38.0864 3.50263 33.9434 3.5 28.2499 3.5M49.6402 4.8724C51.6559 6.91695 52.5954 9.52085 53.0514 12.9279C53.5027 16.2989 53.4999 20.6351 53.4999 26.25M49.6402 4.8724L47.8599 6.6276C49.3442 8.13305 50.1547 10.1292 50.5737 13.2596C50.9974 16.4262 50.9999 20.5649 50.9999 26.25M9.43358 17.4923L10.6833 17.4667V16.2167M9.43358 17.4923C9.4267 17.1564 9.5553 16.8319 9.79043 16.5919C10.0256 16.3519 10.3474 16.2167 10.6833 16.2167M9.43358 17.4923C9.57078 24.1797 11.3137 29.6955 14.6451 33.558C18.0013 37.4495 22.8444 39.5168 28.8499 39.5168M9.43358 17.4923L11.9331 17.441C12.0625 23.7535 13.7029 28.6377 16.5382 31.9253C19.3487 35.1838 23.4557 37.0168 28.8499 37.0168M10.6833 16.2167H16.4167M10.6833 16.2167V18.7167H16.4167V16.2167M30.7667 38.2668H29.5167V39.5168M30.7667 38.2668C30.7667 38.957 30.2069 39.5168 29.5167 39.5168M30.7667 38.2668V30.8333H28.2667M30.7667 38.2668H28.2667V30.8333M29.5167 39.5168H28.8666M29.5167 39.5168V37.0168H28.8666M28.2667 30.8333H29.5167L29.6406 29.5895M28.2667 30.8333C28.2667 30.4803 28.4159 30.1438 28.6777 29.9068C28.9394 29.6698 29.2891 29.5545 29.6406 29.5895M29.6406 29.5895L29.3927 32.0772C32.9889 32.4352 35.7982 35.078 36.9432 38.6482M29.6406 29.5895C34.4109 30.0647 37.9351 33.5552 39.3236 37.885L36.9432 38.6482M38.1334 39.5168V38.2668L36.9432 38.6482M38.1334 39.5168C37.5899 39.5168 37.1089 39.1657 36.9432 38.6482M38.1334 39.5168H44.0499M38.1334 39.5168V37.0168H44.0499V39.5168M45.2567 37.9405L44.0499 38.2668V39.5168M45.2567 37.9405C45.3582 38.316 45.2792 38.7175 45.0427 39.0265C44.8059 39.3355 44.4392 39.5168 44.0499 39.5168M45.2567 37.9405C44.6037 35.5252 43.4462 33.276 41.8604 31.341M45.2567 37.9405L42.8434 38.593C42.2827 36.519 41.2887 34.5872 39.9267 32.9257M34.9429 28.9525L35.4999 27.8333L34.8499 26.7658M34.9429 28.9525C34.5356 28.7495 34.2704 28.3412 34.2511 27.8865C34.2316 27.4317 34.4611 27.0025 34.8499 26.7658M34.9429 28.9525C36.8664 29.9097 38.5649 31.264 39.9267 32.9257M34.9429 28.9525L36.0569 26.7142C38.2967 27.829 40.2747 29.406 41.8604 31.341M34.8499 26.7658L36.1502 28.901C38.1622 27.6758 39.8999 26.0488 41.2549 24.1215M34.8499 26.7658C36.5684 25.7193 38.0524 24.3295 39.2097 22.6838M40.2322 23.4025L41.2549 24.1215M41.2549 24.1215L39.2097 22.6838M41.2549 24.1215C42.6097 22.1943 43.5527 20.0085 44.0247 17.7005M42.7999 16.2V17.45L44.0247 17.7005M42.7999 16.2C43.1754 16.2 43.5309 16.3688 43.7684 16.6596C44.0059 16.9505 44.0999 17.3327 44.0247 17.7005M42.7999 16.2H37.4334M42.7999 16.2V18.7H37.4334V16.2M44.0247 17.7005L41.5754 17.1995C41.1722 19.1708 40.3669 21.0377 39.2097 22.6838M36.2304 17.1105L37.4334 17.45V16.2M36.2304 17.1105C36.3824 16.5719 36.8736 16.2 37.4334 16.2M36.2304 17.1105C35.7044 18.9735 34.6516 20.7673 33.3624 22.1245C32.0566 23.499 30.6254 24.308 29.3841 24.4405L29.6492 26.9262M36.2304 17.1105L38.6364 17.7896C37.9954 20.0599 36.7317 22.2077 35.1752 23.8463C33.6349 25.4675 31.6914 26.7085 29.6492 26.9262M29.6492 26.9262L29.5167 25.6832H28.2667M29.6492 26.9262C29.2967 26.964 28.9447 26.85 28.6809 26.613C28.4172 26.3758 28.2667 26.038 28.2667 25.6832M28.2667 25.6832H30.7667V17.4667M28.2667 25.6832V17.4667H30.7667M29.5167 16.2167V17.4667H30.7667M29.5167 16.2167C30.2069 16.2167 30.7667 16.7763 30.7667 17.4667M29.5167 16.2167H24.1334M29.5167 16.2167V18.7167H24.1334V16.2167M22.8834 17.4667H24.1334V16.2167M22.8834 17.4667C22.8834 16.7763 23.4429 16.2167 24.1334 16.2167M22.8834 17.4667V31.8667H25.3834M22.8834 17.4667H25.3834V31.8667M25.3834 31.8667H24.1334L23.8302 33.0793M25.3834 31.8667C25.3834 32.2515 25.2059 32.615 24.9026 32.852C24.5991 33.0887 24.2037 33.1728 23.8302 33.0793M23.8302 33.0793L24.4364 30.654C21.8385 30.0045 17.8431 26.6315 17.6664 17.4426M23.8302 33.0793C19.7615 32.0623 15.3568 27.3685 15.1669 17.4907L17.6664 17.4426M16.4167 16.2167V17.4667L17.6664 17.4426M16.4167 16.2167C17.0977 16.2167 17.6533 16.7618 17.6664 17.4426M1 26.25H3.5M1 26.25V28.25M3.5 26.25V28.25M1 28.25H3.5M26.2499 53.5V51M26.2499 53.5H28.2499M26.2499 51H28.2499M28.2499 53.5V51M53.4999 28.25H50.9999M53.4999 28.25V26.25M50.9999 28.25V26.25M53.4999 26.25H50.9999M28.2499 1V3.5M28.2499 1H26.2499M28.2499 3.5H26.2499M26.2499 1V3.5M28.8499 39.5168V37.0168M28.8499 39.5168H28.8666M28.8499 37.0168H28.8666M28.8666 39.5168V37.0168M41.8604 31.341L39.9267 32.9257" stroke="#272826"/>
</svg>
